<svg xmlns="http://www.w3.org/2000/svg" width="114" height="108" viewBox="0 0 114 108">
    <g id="Group_24" data-name="Group 24" transform="translate(1319 485)">
        <rect id="Rectangle_7" data-name="Rectangle 7" width="114" height="108" transform="translate(-1319 -485)" fill="none"/>
        <g id="_Group_" data-name="&lt;Group&gt;" transform="translate(-1308.201 -455.62)">
            <g id="_Group_2" data-name="&lt;Group&gt;">
                <path id="_Path_" data-name="&lt;Path&gt;" d="M432.541,679.344a151.866,151.866,0,0,1-21.391,7.272,155.459,155.459,0,0,0,45.139-15.745,88.457,88.457,0,0,0,9.286-5.675,55.873,55.873,0,0,1-9.935,9.823A28.355,28.355,0,0,1,406.951,687.6c-13.746,2.924-23.979,2.215-26.023-2.641-2.171-5.146,5.407-13.626,18.43-21.869-.06.321-.119.649-.164.977-.045.269-.089.545-.119.813-8.092,5.855-12.493,11.538-10.949,15.2,1.387,3.282,7.3,4.281,15.641,3.207,7.57-.977,17.14-3.655,27.127-7.869s18.579-9.189,24.568-13.932c6.586-5.229,10-10.151,8.615-13.44-1.544-3.662-8.689-4.475-18.527-2.774q-.328-.246-.671-.477-.4-.291-.82-.56c15.007-3.573,26.366-3.088,28.536,2.058,2.051,4.855-4.587,12.679-16.274,20.481a144.775,144.775,0,0,1-23.78,12.57Z" transform="translate(-380.559 -641.927)" fill="#a77bff"/>
            </g>
        </g>
        <g id="_Group_3" data-name="&lt;Group&gt;" transform="translate(-1298.384 -457.263)">
            <g id="_Group_4" data-name="&lt;Group&gt;">
                <path id="_Path_2" data-name="&lt;Path&gt;" d="M583.523,628.65c.455,1.1-.492,4.385-7.011,9.763a.174.174,0,0,0-.037.037.159.159,0,0,0-.045.03c-5.93,4.87-14.432,9.785-24.016,13.9l-.716.306c-9.883,4.169-19.616,6.936-27.432,7.8-.037.007-.074.007-.112.015-8.391.918-11.419-.7-11.881-1.8s.492-4.393,7-9.763c.47-.394.955-.775,1.454-1.156-5.013,4.192-5.8,6.72-5.438,7.585.328.783,2.312,1.85,7.541,1.544.888-.045,1.865-.142,2.946-.276,6.958-.887,15.678-3.438,24.553-7.182l.686-.3a117.737,117.737,0,0,0,12.843-6.392c-1.32.6-2.618,1.179-3.886,1.723-18.729,8.025-31.922,9.592-37.845,9.838a28.447,28.447,0,0,1-3.5-.007,26.1,26.1,0,0,0,3.379-.6,28.072,28.072,0,0,1-.186-9.913c.09-.581.2-1.164.336-1.738a28.31,28.31,0,0,1,16.5-19.876l.149-.067a28.325,28.325,0,0,1,25.9,2q.753.462,1.477.977a28.069,28.069,0,0,1,8.674,9.867c3.863-3.528,4.49-5.7,4.162-6.481-.366-.865-2.745-2.066-9.263-1.4.642-.089,1.261-.164,1.88-.239,8.391-.91,11.419.709,11.881,1.8Z" transform="translate(-512.173 -619.894)" fill="#8244ff"/>
            </g>
        </g>
    </g>
</svg>
