<svg xmlns="http://www.w3.org/2000/svg" width="474.423" height="330.973" viewBox="0 0 474.423 330.973">
  <g id="Group_2143" data-name="Group 2143" transform="translate(2754.563 3220.973)">
    <g id="Group_2142" data-name="Group 2142" transform="translate(73.577 610)">
      <g id="XMLID_329_" transform="translate(-2828.14 -3827.301)" opacity="0.16">
        <path id="XMLID_110_" d="M78.541,409.572c-50.528-36.11-73.031-136.24,9.012-185.34,54.316-32.5,88.1-13.96,149.2-35.46,74.6-26.24,85.714-105.52,176.449-66.51,48.07,20.66,81.394,78.89,87.256,145.07,5.745,64.81-18.694,109.28-68.637,139.71C314.54,411.732,197.025,410.882,78.541,409.572Z" transform="translate(-33.205 -84.858)" fill="#b124db" opacity="0.51"/>
        <path id="XMLID_109_" d="M420.992,124.76c7.173,28.8-19.464,57.31-47.526,69.13s-60.243,10.42-90.307,4.78c-12.972-2.43-26.307-5.85-36.384-14.12s-15.92-22.63-10.4-34.23c4.874-10.23,16.74-15.47,28.052-18.16s23.327-3.79,33.4-9.45c9.556-5.37,16.335-14.26,24.646-21.3,15.356-12.99,36.927-19.43,56.891-15.32S414.895,100.28,420.992,124.76Z" transform="translate(-183.284 -84.858)" fill="#b124db" opacity="0.44"/>
      </g>
      <g id="XMLID_27_" transform="translate(-2805.295 -3715.552)">
        <path id="XMLID_155_" d="M350.844,257.226V235.438h8.262a42.263,42.263,0,0,1,4.443-10.71l-5.842-5.851,15.408-15.408,5.851,5.842a42.268,42.268,0,0,1,10.71-4.443v-8.261h21.788v8.261a42.3,42.3,0,0,1,10.71,4.443l5.851-5.842,15.408,15.408-5.842,5.851a42.6,42.6,0,0,1,4.443,10.71H450.3v21.788h-8.261a42.629,42.629,0,0,1-4.443,10.71l5.842,5.851L428.025,289.2l-5.851-5.842a42.6,42.6,0,0,1-10.71,4.443v8.261H389.676V287.8a42.629,42.629,0,0,1-10.71-4.443l-5.851,5.842-15.408-15.408,5.842-5.851a42.268,42.268,0,0,1-4.443-10.71Zm49.719,7.983a18.877,18.877,0,1,0-18.871-18.883A18.884,18.884,0,0,0,400.563,265.209Z" transform="translate(-350.844 -196.607)" fill="#9725e0"/>
        <path id="XMLID_66_" d="M330.991,311.817l4.145-10.8,4.1,1.572a22.447,22.447,0,0,1,4.241-4.466L341.69,294.1l10.572-4.71,1.79,4.01a22.452,22.452,0,0,1,6.156-.166l1.572-4.1,10.8,4.145-1.572,4.1a22.447,22.447,0,0,1,4.466,4.241l4.013-1.784,4.71,10.572-4.01,1.79a22.69,22.69,0,0,1,.166,6.156l4.1,1.572-4.145,10.8-4.1-1.572a22.617,22.617,0,0,1-4.241,4.466l1.784,4.013-10.572,4.71-1.79-4.01a22.65,22.65,0,0,1-6.156.166l-1.572,4.1-10.8-4.145,1.572-4.1a22.617,22.617,0,0,1-4.466-4.241l-4.013,1.784-4.71-10.572,4.01-1.79a22.452,22.452,0,0,1-.166-6.156Zm23.138,13.419a10.027,10.027,0,1,0-5.766-12.955A10.03,10.03,0,0,0,354.129,325.236Z" transform="translate(-265.151 -196.607)" fill="none" stroke="#a2c7eb" stroke-miterlimit="10" stroke-width="1"/>
        <path id="XMLID_69_" d="M312.926,273.917l2.8-7.3,2.768,1.062a15.168,15.168,0,0,1,2.866-3.018l-1.2-2.712,7.144-3.182,1.21,2.71a15.178,15.178,0,0,1,4.16-.112l1.062-2.768,7.3,2.8-1.062,2.768a15.192,15.192,0,0,1,3.018,2.865l2.712-1.2,3.182,7.144-2.71,1.21a15.3,15.3,0,0,1,.112,4.16l2.768,1.062-2.8,7.3-2.768-1.062a15.31,15.31,0,0,1-2.866,3.018l1.2,2.712-7.144,3.182-1.21-2.71a15.3,15.3,0,0,1-4.16.112l-1.062,2.768-7.3-2.8,1.062-2.768a15.273,15.273,0,0,1-3.017-2.865l-2.712,1.2-3.182-7.144,2.71-1.21a15.178,15.178,0,0,1-.112-4.16Zm15.634,9.066a6.775,6.775,0,1,0-3.895-8.753A6.779,6.779,0,0,0,328.56,282.983Z" transform="translate(-211.684 -196.607)" fill="none" stroke="#a2c7eb" stroke-miterlimit="10" stroke-width="1"/>
      </g>
      <g id="XMLID_29_" transform="translate(-2692.069 -3800.496)">
        <path id="XMLID_30_" d="M277.659,146.088a34.426,34.426,0,1,0,34.426-34.426A34.391,34.391,0,0,0,277.659,146.088Z" transform="translate(-277.659 -111.662)" fill="#7526e6" stroke="#7526e6" stroke-miterlimit="10" stroke-width="1"/>
        <g id="XMLID_31_" transform="translate(13.078 10.54)">
          <ellipse id="XMLID_32_" cx="11.269" cy="11.268" rx="11.269" ry="11.268" transform="matrix(-0.992, -0.122, 0.122, -0.992, 31.144, 25.128)" fill="#fff"/>
          <path id="XMLID_33_" d="M290.737,168.759a34.446,34.446,0,0,0,42.7,0c-2.2-9.687-4.228-18.05-6.337-20.169-2.977-2.977-10.886-4.714-15-4.714s-12.395,2.109-13.925,3.639C295.048,150.626,292.36,159.217,290.737,168.759Z" transform="translate(-290.737 -122.202)" fill="#fff"/>
        </g>
      </g>
      <g id="XMLID_34_" transform="translate(-2677.383 -3706.606)">
        <g id="XMLID_35_">
          <path id="XMLID_36_" d="M332.97,230.952v-17a8.4,8.4,0,0,0-8.4-8.4H271.01a8.4,8.4,0,0,0-8.4,8.4v17a8.4,8.4,0,0,0,8.4,8.4h53.55A8.4,8.4,0,0,0,332.97,230.952Z" transform="translate(-262.61 -205.552)" fill="#b124db"/>
          <path id="XMLID_37_" d="M275.4,230.062l25.92,25.25-42.01-21.23" transform="translate(-227.66 -205.552)" fill="#b124db"/>
        </g>
        <g id="XMLID_38_" transform="translate(8.08 6.64)">
          <path id="XMLID_39_" d="M298.09,213.532v-.09a1.25,1.25,0,0,0-1.25-1.25H270.36a1.25,1.25,0,0,0-1.25,1.25v.09a1.25,1.25,0,0,0,1.25,1.25h26.48A1.25,1.25,0,0,0,298.09,213.532Z" transform="translate(-242.31 -212.192)" fill="#fff"/>
          <path id="XMLID_40_" d="M324.89,213.532v-.09a1.25,1.25,0,0,0-1.25-1.25H300.53a1.25,1.25,0,0,0-1.25,1.25v.09a1.25,1.25,0,0,0,1.25,1.25h23.11A1.25,1.25,0,0,0,324.89,213.532Z" transform="translate(-299.28 -212.192)" fill="#fff"/>
          <path id="XMLID_41_" d="M324.89,219.222v-.09a1.25,1.25,0,0,0-1.25-1.25h-33.2a1.25,1.25,0,0,0-1.25,1.25v.09a1.25,1.25,0,0,0,1.25,1.25h33.2A1.25,1.25,0,0,0,324.89,219.222Z" transform="translate(-289.19 -212.192)" fill="#fff"/>
          <path id="XMLID_42_" d="M286.44,219.222v-.09a1.25,1.25,0,0,0-1.25-1.25H270.36a1.25,1.25,0,0,0-1.25,1.25v.09a1.25,1.25,0,0,0,1.25,1.25h14.83A1.25,1.25,0,0,0,286.44,219.222Z" transform="translate(-230.66 -212.192)" fill="#fff"/>
          <path id="XMLID_43_" d="M324.89,224.912v-.09a1.25,1.25,0,0,0-1.25-1.25H295.05a1.25,1.25,0,0,0-1.25,1.25v.09a1.25,1.25,0,0,0,1.25,1.25h28.59A1.25,1.25,0,0,0,324.89,224.912Z" transform="translate(-293.8 -212.192)" fill="#fff"/>
          <path id="XMLID_44_" d="M291.36,224.912v-.09a1.25,1.25,0,0,0-1.25-1.25H270.36a1.25,1.25,0,0,0-1.25,1.25v.09a1.25,1.25,0,0,0,1.25,1.25h19.75A1.25,1.25,0,0,0,291.36,224.912Z" transform="translate(-235.58 -212.192)" fill="#fff"/>
          <path id="XMLID_45_" d="M278.94,230.6v-.09a1.25,1.25,0,0,0-1.25-1.25h-7.33a1.25,1.25,0,0,0-1.25,1.25v.09a1.25,1.25,0,0,0,1.25,1.25h7.33A1.25,1.25,0,0,0,278.94,230.6Z" transform="translate(-223.16 -212.192)" fill="#fff"/>
          <path id="XMLID_46_" d="M324.89,230.6v-.09a1.25,1.25,0,0,0-1.25-1.25H282.78a1.25,1.25,0,0,0-1.25,1.25v.09a1.25,1.25,0,0,0,1.25,1.25h40.86A1.25,1.25,0,0,0,324.89,230.6Z" transform="translate(-281.53 -212.192)" fill="#fff"/>
        </g>
      </g>
      <g id="XMLID_25_" transform="translate(-2471.24 -3763.248)">
        <g id="XMLID_24_" transform="translate(0)">
          <ellipse id="XMLID_28_" cx="33.122" cy="33.122" rx="33.122" ry="33.122" transform="translate(27.947 88.006) rotate(-114.953)" fill="#7526e6"/>
          <g id="XMLID_20_" transform="translate(25.959 17.485)">
            <g id="XMLID_18_" transform="translate(15.626 32.544)">
              <ellipse id="XMLID_1_" cx="8.026" cy="8.026" rx="8.026" ry="8.026" transform="translate(15.145 20.465) rotate(-160.646)" fill="#fff"/>
              <path id="XMLID_17_" d="M96.777,212.051l.388-5.09-4.215-2.88-4.6,2.209-.387,5.09,4.214,2.881Z" transform="translate(-82.328 -198.94)" fill="#b124db"/>
            </g>
            <g id="XMLID_21_">
              <ellipse id="XMLID_23_" cx="8.026" cy="8.026" rx="8.026" ry="8.026" transform="matrix(-0.942, -0.337, 0.337, -0.942, 15.115, 20.518)" fill="#fff"/>
              <path id="XMLID_22_" d="M113.947,179.054l-.276-6.472-4.877-4.263-4.6,2.21.276,6.472,4.878,4.262Z" transform="translate(-99.716 -166.396)" fill="#b423da"/>
            </g>
            <path id="XMLID_19_" d="M102.79,205.461l6.139-2.948-4.537-10.467q-.432-1-.939-1.957L98.122,180l-6.139,2.948,4.376,10.308q.507,1.2,1.124,2.341Z" transform="translate(-82.489 -166.396)" fill="#fff"/>
          </g>
        </g>
        <path id="XMLID_26_" d="M143.56,210.734c-1.183-.549-20.186.318-20.186.318l13.7-12.576Z" transform="translate(-122.551 -148.911)" fill="#0097d8"/>
      </g>
      <g id="XMLID_159_" transform="translate(-2555.418 -3830.973)">
        <g id="XMLID_74_" transform="translate(0)">
          <g id="XMLID_157_">
            <ellipse id="XMLID_166_" cx="32.552" cy="32.552" rx="32.552" ry="32.552" transform="matrix(-0.397, -0.918, 0.918, -0.397, 25.847, 85.601)" fill="#7526e6"/>
          </g>
        </g>
        <g id="XMLID_158_" transform="translate(39.799 15.062)">
          <rect id="XMLID_72_" width="2.174" height="27.338" transform="translate(1.909)" fill="#fff"/>
          <rect id="XMLID_73_" width="2.174" height="27.708" transform="translate(2.997 29.138) rotate(-55.31)" fill="#fff"/>
          <path id="XMLID_156_" d="M174.367,123.988a3,3,0,1,0,3-3A3,3,0,0,0,174.367,123.988Z" transform="translate(-174.367 -96.247)" fill="#fff"/>
        </g>
      </g>
      <g id="XMLID_231_" transform="translate(-2816.8 -3664.509)">
        <g id="XMLID_5_" transform="translate(156.834 18.582)">
          <g id="XMLID_6_" transform="translate(18.314)">
            <path id="XMLID_108_" d="M298.6,344.412c1.93-29.76-11.09-60.56-33.02-78.18C264.9,296.142,277.787,326.412,298.6,344.412Z" transform="translate(-265.551 -266.232)" fill="#b124db"/>
            <path id="XMLID_107_" d="M243.07,274.242a394.732,394.732,0,0,1,23.87,53.83c8.07,22.57,14.42,46.55,28.24,65.47" transform="translate(-239.464 -266.232)" fill="none" stroke="#6f8bbf" stroke-linecap="round" stroke-miterlimit="10" stroke-width="1"/>
          </g>
          <g id="XMLID_7_" transform="translate(0.86 48)">
            <path id="XMLID_106_" d="M316.24,363.132c-11.1-24.83-33.13-43.59-57.42-48.9C269.16,340.842,292.42,361.142,316.24,363.132Z" transform="translate(-258.82 -314.232)" fill="#b124db"/>
            <path id="XMLID_105_" d="M259.67,319.7q24.885,21.9,50.61,42.56" transform="translate(-253.71 -314.232)" fill="none" stroke="#6f8bbf" stroke-linecap="round" stroke-miterlimit="10" stroke-width="1"/>
          </g>
          <g id="XMLID_8_" transform="translate(0 89.422)">
            <path id="XMLID_104_" d="M317.1,384.762c-14.83-22.15-42.19-33.71-64.83-27.39C268.92,379.242,296.34,390.832,317.1,384.762Z" transform="translate(-252.27 -355.654)" fill="#b124db"/>
            <path id="XMLID_103_" d="M249.64,358.972a215.857,215.857,0,0,0,62.03,26.54" transform="translate(-244.21 -355.654)" fill="none" stroke="#6f8bbf" stroke-linecap="round" stroke-miterlimit="10" stroke-width="1"/>
          </g>
          <g id="XMLID_9_" transform="translate(55.372 18.24)">
            <path id="XMLID_102_" d="M241.031,355.6c-4.74-24.94,2.37-52.74,18.2-71.13C265.721,308.982,259.531,337.7,241.031,355.6Z" transform="translate(-239.582 -284.472)" fill="#b124db"/>
            <path id="XMLID_101_" d="M260.98,290.832A269.978,269.978,0,0,1,243.71,357" transform="translate(-242.962 -284.472)" fill="none" stroke="#6f8bbf" stroke-linecap="round" stroke-miterlimit="10" stroke-width="1"/>
          </g>
          <g id="XMLID_10_" transform="translate(64.48 47.6)">
            <path id="XMLID_100_" d="M217.76,376.842c2.02-25.64,15.16-49.72,34.38-63.01a109.573,109.573,0,0,1-10.45,38.57C235.1,366.072,225.42,374.742,217.76,376.842Z" transform="translate(-217.28 -313.832)" fill="#b124db"/>
            <path id="XMLID_99_" d="M252.62,319.022a203.692,203.692,0,0,1-32.01,58.36" transform="translate(-220.61 -313.832)" fill="none" stroke="#6f8bbf" stroke-linecap="round" stroke-miterlimit="10" stroke-width="1"/>
          </g>
        </g>
        <g id="XMLID_11_" transform="translate(0 59.992)">
          <g id="XMLID_12_" transform="translate(0 6.88)">
            <path id="XMLID_98_" d="M461.8,370.692c-10.49-27.29-34.62-49.43-61.23-56.17C412.23,341.442,436.03,363.142,461.8,370.692Z" transform="translate(-400.57 -314.522)" fill="#b124db"/>
            <path id="XMLID_97_" d="M360.39,320.192a387.74,387.74,0,0,1,43.16,38.21c16.38,16.82,31.83,35.58,51.8,46.8" transform="translate(-353.94 -314.522)" fill="none" stroke="#6f8bbf" stroke-linecap="round" stroke-miterlimit="10" stroke-width="1"/>
          </g>
          <g id="XMLID_13_" transform="translate(4.23 55.185)">
            <path id="XMLID_96_" d="M457.57,384.542c-19.99-17.59-47.15-25.31-70.79-20.13C406.82,383.9,435.7,392.492,457.57,384.542Z" transform="translate(-386.78 -362.827)" fill="#b124db"/>
            <path id="XMLID_95_" d="M387.88,366.862q30.975,9.36,62.18,17.26" transform="translate(-380.37 -362.827)" fill="none" stroke="#6f8bbf" stroke-linecap="round" stroke-miterlimit="10" stroke-width="1"/>
          </g>
          <g id="XMLID_14_" transform="translate(21.15 83.796)">
            <path id="XMLID_94_" d="M440.65,401.142c-22.19-13.68-51.11-12.81-68.53,2.06C395.8,415.882,424.79,415.012,440.65,401.142Z" transform="translate(-372.12 -391.438)" fill="#b124db"/>
            <path id="XMLID_93_" d="M369.5,402.4a209.064,209.064,0,0,0,65.7-1.67" transform="translate(-364.05 -391.438)" fill="none" stroke="#6f8bbf" stroke-linecap="round" stroke-miterlimit="10" stroke-width="1"/>
          </g>
          <g id="XMLID_15_" transform="translate(54.82)">
            <path id="XMLID_92_" d="M402.834,378.432c-14.41-20.28-19.52-47.95-13.07-70.79C405.554,326.822,411.854,354.932,402.834,378.432Z" transform="translate(-387.014 -307.642)" fill="#b124db"/>
            <path id="XMLID_91_" d="M391.21,313.962a265.893,265.893,0,0,1,11.85,66" transform="translate(-387.29 -307.642)" fill="none" stroke="#6f8bbf" stroke-linecap="round" stroke-miterlimit="10" stroke-width="1"/>
          </g>
          <g id="XMLID_16_" transform="translate(81.039 16.23)">
            <path id="XMLID_90_" d="M369.619,394.032c-8.72-23.66-6.98-50.48,4.56-70.16a108.18,108.18,0,0,1,6.57,38.62C380.539,377.352,375.539,389.032,369.619,394.032Z" transform="translate(-364.119 -323.872)" fill="#b124db"/>
            <path id="XMLID_89_" d="M374.539,329.652a200.539,200.539,0,0,1-4.37,65.05" transform="translate(-364.858 -323.872)" fill="none" stroke="#6f8bbf" stroke-linecap="round" stroke-miterlimit="10" stroke-width="1"/>
          </g>
        </g>
        <g id="XMLID_112_" transform="translate(345.279)">
          <path id="XMLID_88_" d="M28.013,322.978c10.694-32.709,40.537-59.138,75.254-66.638C88.671,284.637,62.2,307.158,28.013,322.978Z" transform="translate(13.384 -247.65)" fill="#8826e4"/>
          <path id="XMLID_87_" d="M26.86,328.052a98.92,98.92,0,0,1,78.218-7.794A110.454,110.454,0,0,1,26.86,328.052Z" transform="translate(12.726 -247.65)" fill="#8826e4"/>
          <path id="XMLID_86_" d="M39.167,335.145c25.317-3.509,51.829,2.732,72.39,17.037C88.242,360.657,60.271,355.161,39.167,335.145Z" transform="translate(-6.06 -247.65)" fill="#8826e4"/>
          <path id="XMLID_85_" d="M54.994,350.64c25.071-.1,49.721,11.811,64.457,31.158a55.118,55.118,0,0,1-33.243-3.736C75.972,373.425,67.4,365.514,54.994,350.64Z" transform="translate(-29.781 -247.65)" fill="#8826e4"/>
          <path id="XMLID_84_" d="M68.24,376.565c24.721-4.238,51.061,3.422,68.886,20.037a55.352,55.352,0,0,1-33.438,1.816C92.8,395.548,83,389.173,68.24,376.565Z" transform="translate(-60.702 -247.65)" fill="#8826e4"/>
          <path id="XMLID_83_" d="M100.363,324.527c16.324-22,20.754-51.653,11.48-76.877C104.761,259.643,98.65,272.323,95.8,285.8S93.5,313.65,100.363,324.527Z" transform="translate(-66.136 -247.65)" fill="#8826e4"/>
          <path id="XMLID_82_" d="M140.766,345.756a75.833,75.833,0,0,0-21.01-65.083C117.813,304.858,125.213,329.5,140.766,345.756Z" transform="translate(-116.512 -247.65)" fill="#8826e4"/>
          <g id="XMLID_113_" transform="translate(0 11.6)">
            <path id="XMLID_81_" d="M144.664,262.2C94.98,293.99,56.124,341.373,35.613,395.207" transform="translate(-35.613 -259.25)" fill="none" stroke="#6f8bbf" stroke-linecap="round" stroke-miterlimit="10" stroke-width="1"/>
            <path id="XMLID_80_" d="M111.464,259.25A394.21,394.21,0,0,0,100.5,333.969" transform="translate(-67.3 -259.25)" fill="none" stroke="#6f8bbf" stroke-linecap="round" stroke-miterlimit="10" stroke-width="1"/>
            <path id="XMLID_79_" d="M119.836,290.164a145.587,145.587,0,0,0,17.872,56.577" transform="translate(-112.88 -259.25)" fill="none" stroke="#6f8bbf" stroke-linecap="round" stroke-miterlimit="10" stroke-width="1"/>
            <path id="XMLID_78_" d="M106.4,320.829a402.222,402.222,0,0,1-69.086,7.024" transform="translate(0.942 -259.25)" fill="none" stroke="#6f8bbf" stroke-linecap="round" stroke-miterlimit="10" stroke-width="1"/>
            <path id="XMLID_77_" d="M111.81,350.237a185.5,185.5,0,0,1-60.766-14.972" transform="translate(-18.19 -259.25)" fill="none" stroke="#6f8bbf" stroke-linecap="round" stroke-miterlimit="10" stroke-width="1"/>
            <path id="XMLID_76_" d="M121.769,378.266q-29.07-14.5-58.142-29.013" transform="translate(-40.732 -259.25)" fill="none" stroke="#6f8bbf" stroke-linecap="round" stroke-miterlimit="10" stroke-width="1"/>
            <path id="XMLID_75_" d="M137.136,395.337c-25.3-4.882-32.821-10.708-60.9-18.77" transform="translate(-68.704 -259.25)" fill="none" stroke="#6f8bbf" stroke-linecap="round" stroke-miterlimit="10" stroke-width="1"/>
          </g>
        </g>
      </g>
      <g id="XMLID_4_" transform="translate(-2785.62 -3740.631)">
        <g id="XMLID_47_" transform="translate(134.48 112.325)">
          <path id="XMLID_65_" d="M267.69,348.992s-2.19,20.07-4.64,21.68c-4.38,2.89-55.08,9.57-55.08,9.57l1.66,13.19s69.44,6.24,72.39,2.77c5.12-6.02,14.12-35.06,14.12-35.06Z" transform="translate(-207.97 -283.852)" fill="#e06a58"/>
          <path id="XMLID_64_" d="M240.73,297.322l-5.61-13.47s-15.22,7.15-20.24,15.98c-5.37,9.44-11.94,59.63-11.94,59.63s26.87,6.19,31.81,3.56S240.73,297.322,240.73,297.322Z" transform="translate(-147.53 -283.852)" fill="#f2ae30"/>
        </g>
        <path id="XMLID_63_" d="M131.785,234.8c3.93-1.44,8.09-2.7,12.3-2.38s8.51,2.55,9.94,6.25c1.02,2.62.55,5.71,2.16,8.07,1.54,2.26,4.6,3.2,7.46,3.39s5.76-.18,8.61.19c8.8,1.17,15.08,10.73,12.19,18.56-1.15,3.12-3.51,6.1-2.97,9.35.57,3.48,4.22,5.77,5.72,9,1.99,4.3-.39,9.51-4.32,12.44s-9.04,4.03-14,4.77c-6.83,1.02-13.88,1.5-20.63.06s-13.2-5-16.69-10.56c-1.55-2.46-2.49-5.24-4.29-7.55-3.72-4.77-10.31-6.62-15.5-10-5.67-3.71-9.83-10.93-6.49-16.58,3.22-5.43,11.6-6.64,14.96-11.99,1.39-2.21,1.72-4.84,2.62-7.25C123.775,238.152,125.975,236.932,131.785,234.8Z" transform="translate(138.625 -171.527)" fill="#0a2240"/>
        <g id="XMLID_48_" transform="translate(228.54 70.305)">
          <path id="XMLID_62_" d="M171.66,301.412c-.99,1.14-2.16,2.39-3.78,2.5-1.71.12-3.14-1.09-4.24-2.26a43.04,43.04,0,0,1-10.95-21c1.41-.8,2.77-1.57,4-2.29a6.073,6.073,0,0,0,2.49-2.74,5.263,5.263,0,0,0,.37-2.58,73.743,73.743,0,0,0-4.15-19.34c12.54-2.83,24.37-6.19,31.17-11.87.83,3.5,1.81,10.35,3.9,17.14,2.23,7.19,5.71,14.3,11.61,17.36A124.417,124.417,0,0,0,171.66,301.412Z" transform="translate(-152.69 -241.832)" fill="#f9a07b"/>
          <path id="XMLID_61_" d="M168.45,273.052a5.247,5.247,0,0,1-.37,2.58c7.42,9,24.01-2.76,31.29-16.65-2.09-6.79-3.07-13.64-3.9-17.14-6.79,5.68-18.63,9.05-31.17,11.87A73.659,73.659,0,0,1,168.45,273.052Z" transform="translate(-161.59 -241.832)" fill="#e06a58"/>
        </g>
        <g id="XMLID_49_" transform="translate(204.227 101.035)">
          <path id="XMLID_60_" d="M133.1,381.852c1.64,10.86-10.08,22.55-10.37,28.35,24.89,0,77.03,1.52,103.58-2.09,1.21-6.7-11.9-21.77-11.9-36.65,0-1.97.08-4.13.24-6.45.42-6.64,1.4-14.54,2.49-22.64,2.96-21.73,6.9-44.97,3.99-49.79-5.7-9.39-19.03-15.77-25.64-18.51-2.27-.94-3.75-1.45-3.86-1.51-8.29,14.14-25.16,26.2-31.53,25.66-1.77-.14-7.02-1.97-10.49-19.44-1.35.77-2.7,1.48-4.04,2.17-6.59,3.43-12.77,6.26-14.55,10.67-4.7,11.61-9.31,40.88-8.29,51.29,1.03,10.5,5.25,18.52,8.21,29.06.69,2.47,1.32,5.09,1.83,7.91C132.9,380.512,133,381.172,133.1,381.852Z" transform="translate(-122.591 -272.562)" fill="#ffc73c"/>
          <path id="XMLID_59_" d="M122.591,410.2c24.89,0,77.03,1.52,103.58-2.09,1.21-6.7-11.9-21.77-11.9-36.65,0-1.97.08-4.13.24-6.45.42-6.64,1.4-14.54,2.49-22.64-4.71,4.97-11.58-16.03-14.62-9.88-16.45,33.2-29.42,41.93-51.96,41.93a86.537,86.537,0,0,1-19.62-2.45c.69,2.47,1.32,5.09,1.83,7.91q.18.96.33,1.98C134.6,392.7,122.881,404.392,122.591,410.2Z" transform="translate(-122.448 -272.562)" fill="#fb3"/>
          <path id="XMLID_58_" d="M153.49,280.952c1.07,7.77,4.24,18.24,13.46,21,12.46,3.73,30.49-19.55,36.46-27.88-2.27-.94-3.75-1.45-3.86-1.51-8.29,14.14-25.16,26.2-31.53,25.66-1.77-.14-7.02-1.97-10.49-19.44C156.18,279.542,154.83,280.252,153.49,280.952Z" transform="translate(-130.507 -272.562)" fill="#fce172"/>
        </g>
        <g id="XMLID_50_" transform="translate(0 145.395)">
          <g id="XMLID_51_">
            <g id="XMLID_52_" transform="translate(66.86 81.35)">
              <path id="XMLID_57_" d="M363.67,398.512l.09,8.67-155,.92-.32-9.83Z" transform="translate(-208.44 -398.272)" fill="#325f73"/>
            </g>
            <g id="XMLID_53_">
              <path id="XMLID_56_" d="M257.63,321.162l3.45-3.5,112.9-.74,56.64,81.91-2.96,2.38Z" transform="translate(-257.63 -316.922)" fill="#325f73"/>
              <path id="XMLID_55_" d="M374.76,319.952l55.86,81.26-106.7.53-63.33-80.58Z" transform="translate(-260.59 -316.922)" fill="#7526e6"/>
            </g>
          </g>
          <ellipse id="XMLID_54_" cx="12.42" cy="6.21" rx="12.42" ry="6.21" transform="translate(74.79 42.48)" fill="#b124db"/>
        </g>
        <g id="XMLID_114_" transform="translate(196.801)">
          <g id="XMLID_115_" transform="translate(0 53.083)">
            <path id="XMLID_116_" d="M233.374,239.735c-1.76-9.442-8.234-16.155-14.462-14.995s-9.85,9.755-8.09,19.2,8.234,16.155,14.462,14.995S235.133,249.177,233.374,239.735Z" transform="translate(-210.378 -224.61)" fill="#b124db"/>
          </g>
          <path id="XMLID_117_" d="M208.582,214.3c1.16,8.22,4.83,17.28,10.18,27.29,1.88-8.2,3.08-18.19,4.74-28.18,1.69-10.01,3.84-20.02,7.57-28.2a48.956,48.956,0,0,1,2.74-5.14,18.247,18.247,0,0,0-6.58.59,22.046,22.046,0,0,0-9,4.91,31.556,31.556,0,0,0-8.77,14.33A32.159,32.159,0,0,0,208.582,214.3Z" transform="translate(-208.154 -171.527)" fill="#0b2d50"/>
          <g id="XMLID_118_" transform="translate(6.645 4.403)">
            <path id="XMLID_119_" d="M156.542,222.8c.06,1.62.17,3.27.32,4.91,2.28,26.6,13.45,44.85,30.54,44.85,24.13,0,39.77-27.06,39.77-53.57,0-26.15-16.02-45.08-34.77-42.89-10.81,1.24-18.71,4.83-24.32,10.09a33.147,33.147,0,0,0-8.22,12.54,54.825,54.825,0,0,0-3.31,18.06c0,.02-.02.04-.02.06C156.452,218.792,156.472,220.772,156.542,222.8Z" transform="translate(-156.478 -175.93)" fill="#f9a07b"/>
            <path id="XMLID_120_" d="M167.594,222.8a26.733,26.733,0,0,1,3.25-7.33,75.934,75.934,0,0,0,47.27,7.59c3.06,2.55,6.05,5.06,9.06,7.57-.06-12.1-.23-20.29-4.95-26.15-4.43-5.5-11.82-7.57-18.82-8.47a87.053,87.053,0,0,0-23.75.15,24.034,24.034,0,0,0-8.75,2.59,54.825,54.825,0,0,0-3.31,18.06c0,.02-.02.04-.02.06C167.5,218.792,167.524,220.772,167.594,222.8Z" transform="translate(-167.53 -175.93)" fill="#e06a58"/>
          </g>
          <path id="XMLID_121_" d="M149.327,206.422a44.577,44.577,0,0,0,12.12,7c13.26,5.35,30.49,7.12,43.92,6.47,6.6,14.5,9.27,19.7,10.96,32.35,6.45-6.05,11.7-17.13,13.26-25.84a59.1,59.1,0,0,0-1.03-26.32,39.364,39.364,0,0,0-20.08-24.15,37.743,37.743,0,0,0-4.32-2c-8.51-3.29-18.1-2.99-26.83-.32a31.954,31.954,0,0,0-12.14,7.06c-6.81,6.15-11.02,14.48-13.74,20.72C150.587,203.3,149.9,205.032,149.327,206.422Z" transform="translate(-146.098 -171.527)" fill="#0b2d50"/>
          <path id="XMLID_122_" d="M171.883,214.3a40.714,40.714,0,0,1,2.53-8.45,29.115,29.115,0,0,1,2.38-4.47,24.512,24.512,0,0,1,12.77-10.41,46.991,46.991,0,0,1,4.8-5.75,37.041,37.041,0,0,1,20.67-10.9,39.269,39.269,0,0,1,18.78,1.6,37.743,37.743,0,0,0-4.32-2c-8.51-3.29-18.1-2.99-26.83-.32a31.954,31.954,0,0,0-12.14,7.06,22.046,22.046,0,0,0-9,4.91,31.556,31.556,0,0,0-8.77,14.33A32.3,32.3,0,0,0,171.883,214.3Z" transform="translate(-171.454 -171.527)" fill="#225570"/>
          <g id="XMLID_123_" transform="translate(8.609 56.462)">
            <g id="XMLID_124_">
              <path id="XMLID_125_" d="M197.82,230.612c-4.46-2.55-9.09-3.7-15.58-1.33" transform="translate(-154.85 -227.989)" fill="none" stroke="#0b2d50" stroke-linecap="round" stroke-miterlimit="10" stroke-width="2"/>
              <path id="XMLID_126_" d="M225.21,230.432c-3.82-2.85-9.48-3.14-12.43,0" transform="translate(-212.78 -227.989)" fill="none" stroke="#0b2d50" stroke-linecap="round" stroke-miterlimit="10" stroke-width="2"/>
              <path id="XMLID_127_" d="M207.575,244.972c-.39,2.02-.18,6.49.78,8.5" transform="translate(-190.535 -227.989)" fill="none" stroke="#cc454e" stroke-linecap="round" stroke-miterlimit="10" stroke-width="2"/>
              <ellipse id="XMLID_128_" cx="1.84" cy="2.9" rx="1.84" ry="2.9" transform="translate(30.27 12.543)" fill="#262d40"/>
              <ellipse id="XMLID_129_" cx="1.84" cy="2.9" rx="1.84" ry="2.9" transform="translate(6.22 11.193)" fill="#262d40"/>
            </g>
            <g id="XMLID_130_" transform="translate(19.32 25.493)">
              <path id="XMLID_131_" d="M190.944,257.422a14.132,14.132,0,0,0,1.05,1.65,11.42,11.42,0,0,0,5.43,4.23h.01a7.091,7.091,0,0,0,3.49.23c3.76-.67,4.75-4.14,4.93-6.81a14.3,14.3,0,0,0,.03-1.44,13.631,13.631,0,0,0-.14-1.8C199.754,256.782,190.944,257.422,190.944,257.422Z" transform="translate(-190.944 -253.482)" fill="#cc454e"/>
              <path id="XMLID_132_" d="M190.95,257.422a14.132,14.132,0,0,0,1.05,1.65c3.06-.04,9.32-1.61,13.89-3.79a13.631,13.631,0,0,0-.14-1.8C199.76,256.782,190.95,257.422,190.95,257.422Z" transform="translate(-190.95 -253.482)" fill="#fff"/>
              <path id="XMLID_133_" d="M190.98,263.292a7.091,7.091,0,0,0,3.49.23c3.76-.67,4.75-4.14,4.93-6.81a10.239,10.239,0,0,0-8.42,6.58Z" transform="translate(-184.49 -253.482)" fill="#e8729b"/>
            </g>
          </g>
          <g id="XMLID_134_" transform="translate(7.319 4.153)">
            <path id="XMLID_135_" d="M222.54,226.022a69.128,69.128,0,0,0-4.98-24.86c-6.51-15.55-19.78-22.2-32.65-22.65a35.068,35.068,0,0,0-25.22,9.86s5.05-8.91,15.01-11.47c6.54-1.68,16.41-1.95,24.33,1.27,8.16,3.31,18.33,12.5,22.01,22.21s5.46,24.83,5.46,24.83Z" transform="translate(-159.69 -175.68)" fill="#b124db"/>
            <g id="XMLID_136_" transform="translate(51.091 45.112)">
              <ellipse id="XMLID_137_" cx="12.09" cy="18.318" rx="12.09" ry="18.318" transform="translate(24.049 38.94) rotate(-174.065)" fill="#7526e6"/>
              <path id="XMLID_138_" d="M160.335,227.942c-4.287-.644-8.682,4.948-9.815,12.49s1.423,14.179,5.711,14.823,8.682-4.948,9.815-12.49S164.622,228.586,160.335,227.942Z" transform="translate(-141.157 -220.792)" fill="#b124db"/>
            </g>
            <g id="XMLID_139_" transform="translate(18.68 79.832)">
              <ellipse id="XMLID_140_" cx="6.44" cy="4.01" rx="6.44" ry="4.01" transform="translate(0 9.4)" fill="#7526e6"/>
              <path id="XMLID_141_" d="M194.94,255.512s-9.46,12.16-25.91,13.41" transform="translate(-156.15 -255.512)" fill="none" stroke="#7526e6" stroke-linecap="round" stroke-miterlimit="10" stroke-width="2"/>
            </g>
          </g>
        </g>
        <g id="XMLID_142_" transform="translate(175.031 108.735)">
          <g id="XMLID_143_">
            <g id="XMLID_144_" transform="translate(0 54.64)">
              <g id="XMLID_145_" transform="translate(47.149)">
                <path id="XMLID_146_" d="M122.6,375.362l.62,15.99s57.83,17.33,67.38,11.85c4.66-2.68,9.01-17.42,12.26-31.81,3.4-15.12,5.58-29.84,5.58-29.84l-33.9-6.64s-.02,20.67-1.17,32.62c-.41,4.45-1,7.69-1.79,8.22C168.59,377.722,122.6,375.362,122.6,375.362Z" transform="translate(-122.6 -334.902)" fill="#f9a07b"/>
                <path id="XMLID_147_" d="M122.6,367.512c6.16,2,18.05,5.09,29.49,3.87,3.4-15.12,5.58-29.84,5.58-29.84l-33.9-6.64C123.77,334.892,123.75,355.562,122.6,367.512Z" transform="translate(-71.83 -334.902)" fill="#e06a58"/>
              </g>
              <g id="XMLID_148_" transform="translate(0 32.709)">
                <path id="XMLID_149_" d="M252.629,375.522c-8.6-1.84-23.16-6.26-29.2-7.78-4.29-1.08-15.46,4.7-18.41,10.15-1.29,2.38-2.51,15.86,1.96,14.47,2.24-.7,1.87-6.48,2.57-8.84.57-1.92,2.39-3.78,5.16-5.38-1.85,4.61-1.78,8.63-1.58,13.61a7.057,7.057,0,0,0,.64,3.2,2.3,2.3,0,0,0,2.7,1.21c1.02-.42,1.37-1.69,1.6-2.8a91.035,91.035,0,0,0,1.91-12.02c-.08,4.27.01,8.55.28,12.81.2,3.26,1.82,5.05,3.81,4.48.89-.25,1.25-1.07,1.63-2.15.6,2.09,2.1,4.4,4.04,3.52,1.18-.53,1.91-4.79,1.7-9.17a25.66,25.66,0,0,0,12.76,3.51c4.34.2,8.78-.61,11.39-3.56A76.72,76.72,0,0,0,252.629,375.522Z" transform="translate(-203.83 -367.611)" fill="#f9a07b"/>
                <path id="XMLID_150_" d="M233.027,395.822a30.575,30.575,0,0,1,.89-10.31" transform="translate(-211.248 -367.611)" fill="none" stroke="#cc454e" stroke-linecap="round" stroke-miterlimit="10" stroke-width="1"/>
              </g>
            </g>
            <path id="XMLID_151_" d="M126.282,301.372c2.46-6.93,11.47-21.11,11.47-21.11s13.75,5.72,18.63,15.43c8.26,16.44,4.06,63.64,4.06,63.64-11.13,4.66-33.47,4.73-42.98,3.39C117.462,362.722,121.352,315.222,126.282,301.372Z" transform="translate(-23.383 -280.262)" fill="#ffc73c"/>
          </g>
          <path id="XMLID_152_" d="M160.84,304.272a305.747,305.747,0,0,0-6.4,51.09" transform="translate(-59.691 -280.262)" fill="none" stroke="#f2ae30" stroke-linecap="round" stroke-miterlimit="10" stroke-width="1"/>
        </g>
      </g>
    </g>
  </g>
</svg>
